<mxfile host="app.diagrams.net" agent="Mozilla/5.0 (Windows NT 10.0; Win64; x64) AppleWebKit/537.36 (KHTML, like Gecko) Chrome/129.0.0.0 Safari/537.36" version="24.8.0">
  <diagram name="Página-1" id="jZNI6kJHGhAPYXhtxn2M">
    <mxGraphModel dx="1195" dy="648" grid="1" gridSize="10" guides="1" tooltips="1" connect="1" arrows="1" fold="1" page="1" pageScale="1" pageWidth="827" pageHeight="1169" math="0" shadow="0">
      <root>
        <mxCell id="0" />
        <mxCell id="1" parent="0" />
        <mxCell id="Mivz6OfDrqn59PwbkGwn-10" value="" style="rounded=0;whiteSpace=wrap;html=1;" parent="1" vertex="1">
          <mxGeometry x="180" y="580" width="240" height="360" as="geometry" />
        </mxCell>
        <mxCell id="46wFzU1qvSwc1RMeuPBv-4" value="Usuario" style="shape=umlActor;verticalLabelPosition=bottom;verticalAlign=top;html=1;outlineConnect=0;direction=east;" parent="1" vertex="1">
          <mxGeometry x="40" y="307.5" width="60" height="140" as="geometry" />
        </mxCell>
        <mxCell id="46wFzU1qvSwc1RMeuPBv-5" value="" style="rounded=0;whiteSpace=wrap;html=1;labelBackgroundColor=none;fontColor=default;" parent="1" vertex="1">
          <mxGeometry x="150" y="60" width="340" height="470" as="geometry" />
        </mxCell>
        <mxCell id="46wFzU1qvSwc1RMeuPBv-6" value="Login" style="ellipse;whiteSpace=wrap;html=1;" parent="1" vertex="1">
          <mxGeometry x="260.75" y="130" width="120" height="50" as="geometry" />
        </mxCell>
        <mxCell id="46wFzU1qvSwc1RMeuPBv-7" value="Juego" style="rounded=0;whiteSpace=wrap;html=1;" parent="1" vertex="1">
          <mxGeometry x="150" y="60" width="100" height="35" as="geometry" />
        </mxCell>
        <mxCell id="46wFzU1qvSwc1RMeuPBv-11" value="" style="endArrow=none;html=1;rounded=0;" parent="1" source="46wFzU1qvSwc1RMeuPBv-4" target="46wFzU1qvSwc1RMeuPBv-6" edge="1">
          <mxGeometry width="50" height="50" relative="1" as="geometry">
            <mxPoint x="223" y="300" as="sourcePoint" />
            <mxPoint x="273" y="250" as="targetPoint" />
          </mxGeometry>
        </mxCell>
        <mxCell id="qULEmMPLRNUaXXGW2xrg-3" value="include" style="endArrow=none;html=1;rounded=0;" parent="1" source="46wFzU1qvSwc1RMeuPBv-6" target="Mivz6OfDrqn59PwbkGwn-1" edge="1">
          <mxGeometry width="50" height="50" relative="1" as="geometry">
            <mxPoint x="300.75" y="345" as="sourcePoint" />
            <mxPoint x="320.75" y="215" as="targetPoint" />
          </mxGeometry>
        </mxCell>
        <mxCell id="GgtP5W7gPfGcNIlzFrxF-9" value="Administrador" style="shape=umlActor;verticalLabelPosition=bottom;verticalAlign=top;html=1;outlineConnect=0;" parent="1" vertex="1">
          <mxGeometry x="40" y="640" width="63" height="110" as="geometry" />
        </mxCell>
        <mxCell id="GgtP5W7gPfGcNIlzFrxF-11" value="Iniciar partida" style="ellipse;whiteSpace=wrap;html=1;" parent="1" vertex="1">
          <mxGeometry x="245" y="590" width="120" height="80" as="geometry" />
        </mxCell>
        <mxCell id="GgtP5W7gPfGcNIlzFrxF-13" value="Terminar partida" style="ellipse;whiteSpace=wrap;html=1;" parent="1" vertex="1">
          <mxGeometry x="245" y="681" width="120" height="80" as="geometry" />
        </mxCell>
        <mxCell id="GgtP5W7gPfGcNIlzFrxF-14" value="" style="endArrow=none;html=1;rounded=0;" parent="1" source="GgtP5W7gPfGcNIlzFrxF-9" target="GgtP5W7gPfGcNIlzFrxF-11" edge="1">
          <mxGeometry width="50" height="50" relative="1" as="geometry">
            <mxPoint x="501.5" y="560" as="sourcePoint" />
            <mxPoint x="551.5" y="510" as="targetPoint" />
          </mxGeometry>
        </mxCell>
        <mxCell id="GgtP5W7gPfGcNIlzFrxF-15" value="" style="endArrow=none;html=1;rounded=0;" parent="1" source="GgtP5W7gPfGcNIlzFrxF-9" target="GgtP5W7gPfGcNIlzFrxF-13" edge="1">
          <mxGeometry width="50" height="50" relative="1" as="geometry">
            <mxPoint x="501.5" y="560" as="sourcePoint" />
            <mxPoint x="551.5" y="510" as="targetPoint" />
          </mxGeometry>
        </mxCell>
        <mxCell id="GgtP5W7gPfGcNIlzFrxF-16" value="Ingresar Usuario" style="ellipse;whiteSpace=wrap;html=1;" parent="1" vertex="1">
          <mxGeometry x="245" y="761" width="120" height="80" as="geometry" />
        </mxCell>
        <mxCell id="GgtP5W7gPfGcNIlzFrxF-17" value="Guardar estadísticas de la partida" style="ellipse;whiteSpace=wrap;html=1;" parent="1" vertex="1">
          <mxGeometry x="245" y="851" width="120" height="80" as="geometry" />
        </mxCell>
        <mxCell id="GgtP5W7gPfGcNIlzFrxF-18" value="" style="endArrow=none;html=1;rounded=0;" parent="1" source="GgtP5W7gPfGcNIlzFrxF-9" target="GgtP5W7gPfGcNIlzFrxF-16" edge="1">
          <mxGeometry width="50" height="50" relative="1" as="geometry">
            <mxPoint x="501.5" y="780" as="sourcePoint" />
            <mxPoint x="551.5" y="730" as="targetPoint" />
          </mxGeometry>
        </mxCell>
        <mxCell id="GgtP5W7gPfGcNIlzFrxF-19" value="" style="endArrow=none;html=1;rounded=0;" parent="1" source="GgtP5W7gPfGcNIlzFrxF-9" target="GgtP5W7gPfGcNIlzFrxF-17" edge="1">
          <mxGeometry width="50" height="50" relative="1" as="geometry">
            <mxPoint x="501.5" y="780" as="sourcePoint" />
            <mxPoint x="551.5" y="730" as="targetPoint" />
          </mxGeometry>
        </mxCell>
        <mxCell id="Mivz6OfDrqn59PwbkGwn-1" value="recibir cartas" style="ellipse;whiteSpace=wrap;html=1;" parent="1" vertex="1">
          <mxGeometry x="260.75" y="215.62" width="120" height="60" as="geometry" />
        </mxCell>
        <mxCell id="Mivz6OfDrqn59PwbkGwn-2" value="&lt;div&gt;tirar cartas&lt;/div&gt;" style="ellipse;whiteSpace=wrap;html=1;" parent="1" vertex="1">
          <mxGeometry x="259.25" y="305.62" width="120" height="62.5" as="geometry" />
        </mxCell>
        <mxCell id="Mivz6OfDrqn59PwbkGwn-3" value="" style="endArrow=none;html=1;rounded=0;" parent="1" source="Mivz6OfDrqn59PwbkGwn-2" target="Mivz6OfDrqn59PwbkGwn-1" edge="1">
          <mxGeometry width="50" height="50" relative="1" as="geometry">
            <mxPoint x="199.25" y="495.62" as="sourcePoint" />
            <mxPoint x="249.25" y="445.62" as="targetPoint" />
          </mxGeometry>
        </mxCell>
        <mxCell id="Mivz6OfDrqn59PwbkGwn-4" value="Registrarse" style="ellipse;whiteSpace=wrap;html=1;" parent="1" vertex="1">
          <mxGeometry x="259.25" y="410" width="120" height="60" as="geometry" />
        </mxCell>
        <mxCell id="Mivz6OfDrqn59PwbkGwn-5" value="" style="endArrow=none;html=1;rounded=0;" parent="1" source="Mivz6OfDrqn59PwbkGwn-4" target="46wFzU1qvSwc1RMeuPBv-4" edge="1">
          <mxGeometry width="50" height="50" relative="1" as="geometry">
            <mxPoint x="270" y="440" as="sourcePoint" />
            <mxPoint x="320" y="390" as="targetPoint" />
          </mxGeometry>
        </mxCell>
        <mxCell id="Mivz6OfDrqn59PwbkGwn-6" value="" style="endArrow=classic;html=1;rounded=0;curved=1;endFill=1;" parent="1" source="Mivz6OfDrqn59PwbkGwn-4" target="46wFzU1qvSwc1RMeuPBv-6" edge="1">
          <mxGeometry width="50" height="50" relative="1" as="geometry">
            <mxPoint x="270" y="440" as="sourcePoint" />
            <mxPoint x="320" y="390" as="targetPoint" />
            <Array as="points">
              <mxPoint x="520" y="290" />
            </Array>
          </mxGeometry>
        </mxCell>
        <mxCell id="Mivz6OfDrqn59PwbkGwn-9" value="extend" style="edgeLabel;html=1;align=center;verticalAlign=middle;resizable=0;points=[];" parent="Mivz6OfDrqn59PwbkGwn-6" vertex="1" connectable="0">
          <mxGeometry x="0.3572" y="44" relative="1" as="geometry">
            <mxPoint as="offset" />
          </mxGeometry>
        </mxCell>
      </root>
    </mxGraphModel>
  </diagram>
</mxfile>
